<svg width="415" height="135" xmlns="http://www.w3.org/2000/svg" version="1.1">
 <g id="Layer_1">
  <title>Layer 1</title>
  <g stroke="null">
   <g stroke="null">
    <g stroke="null" id="svg_3">
     <path stroke="null" fill="#70c6be" d="m93.55523,3.69175c1.41002,-0.17421 2.8782,0.16652 4.05679,1.03629c1.77559,1.2374 3.0325,3.12681 4.09358,5.06105c4.81758,8.71434 9.66721,17.40946 14.48241,26.12635c6.41157,11.65541 12.82552,23.30953 19.22047,34.97775c4.42472,8.07001 8.86012,16.13491 13.31452,24.18699c2.93399,5.37873 5.95937,10.7011 8.76399,16.16053c1.20825,2.28522 1.87172,4.92399 1.77202,7.56148c-0.07003,2.03928 -0.41304,4.13492 -1.40528,5.90264c-1.39222,2.49274 -3.72564,4.25277 -6.25609,5.16993c-1.34949,0.52391 -2.76545,0.88002 -4.20515,0.88258c-15.70491,-0.0064 -31.40982,0.00512 -47.11354,0.00384c-1.35068,-0.03715 -2.72391,-0.20495 -3.99151,-0.73271c-0.92696,-0.42656 -1.83968,-0.95175 -2.56487,-1.71904c-1.23792,-1.32195 -2.04026,-3.19726 -1.82543,-5.10204c0.11157,-1.33091 0.41304,-2.64389 0.92103,-3.86336c0.49256,-1.25149 1.1857,-2.39154 1.78745,-3.58283c2.62658,-5.05593 5.37779,-10.03628 8.23938,-14.94234c0.91628,-1.54355 1.71387,-3.21135 2.98146,-4.46669c1.34712,-1.33091 3.03843,-2.37489 4.89117,-2.51067c1.48955,-0.06661 2.95417,0.48932 4.19565,1.35141c1.40053,0.88642 2.50315,2.36208 2.87227,4.08368c0.53291,2.1789 -0.04035,4.46797 -0.8961,6.45857c-0.96019,2.26089 -2.32868,4.31297 -3.06336,6.68402c-0.13412,0.53928 -0.31571,1.21947 0.05697,1.6947c0.37862,0.38429 0.90441,0.53544 1.39697,0.66866c1.42427,0.34201 2.89363,0.25363 4.34283,0.26388c5.341,-0.00128 10.682,0 16.023,0c1.05752,-0.01921 2.11622,0.03843 3.17374,-0.02818c0.76317,-0.09479 1.59518,-0.22929 2.18862,-0.80444c0.39167,-0.37404 0.44034,-1.00555 0.29197,-1.51793c-0.32521,-1.13493 -0.88542,-2.16866 -1.43851,-3.1883c-14.24148,-26.24804 -28.40343,-52.54733 -42.79446,-78.70186c-0.47001,-0.84031 -0.87355,-1.75235 -1.54652,-2.43125c-0.33233,-0.34458 -0.82489,-0.54056 -1.27828,-0.39838c-0.38574,0.14987 -0.64685,0.51622 -0.90322,0.84159c-0.6338,0.87233 -1.20113,1.80102 -1.72218,2.75661c-2.47941,4.34884 -4.852,8.76685 -7.28156,13.14772c-13.99342,25.41799 -27.98921,50.83469 -41.98144,76.25396c-0.86762,1.72417 -1.79101,3.41631 -2.7975,5.0508c-0.88423,1.40393 -1.95718,2.71947 -3.3399,3.5649c-1.6296,1.01708 -3.64256,1.42058 -5.46918,0.83774c-1.33288,-0.44449 -2.62184,-1.16823 -3.5761,-2.28522c-1.20825,-1.2912 -1.74354,-3.18061 -1.68182,-4.98804c0.06172,-1.9035 0.6516,-3.75832 1.54058,-5.39282c8.49575,-15.57513 17.04609,-31.11695 25.62849,-46.63828c4.41523,-8.0444 8.81027,-16.10032 13.25042,-24.12806c4.49119,-8.13406 8.99305,-16.26044 13.46406,-24.40731c2.49484,-4.58838 5.00748,-9.16651 7.62932,-13.67291c0.8059,-1.42826 1.84917,-2.70922 3.1049,-3.69555c1.03022,-0.75833 2.18625,-1.40905 3.44791,-1.52946z" id="svg_4"/>
    </g>
    <g stroke="null" id="svg_1">
     <path stroke="null" fill="#1ba0d8" d="m92.84073,63.89662c2.11622,-0.36763 4.35825,0.17805 6.11248,1.50896c1.33169,1.10931 2.25628,2.77199 2.52333,4.5666c0.18159,1.36806 0.05816,2.78608 -0.40829,4.07856c-0.35844,1.11827 -0.87236,2.16994 -1.44444,3.17805c-8.16105,14.80528 -16.31972,29.61183 -24.48195,44.41711c-1.04446,1.85354 -1.99635,3.77497 -3.19985,5.51707c-0.87474,1.16695 -1.96786,2.15841 -3.22952,2.80401c-2.66694,1.5333 -6.1469,0.59821 -8.17529,-1.70751c-1.02785,-1.11315 -1.63078,-2.64261 -1.70912,-4.20666c-0.11632,-1.61913 0.21483,-3.25619 0.89373,-4.69982c0.597,-1.40393 1.3032,-2.74765 2.04026,-4.06959c3.58678,-6.51237 7.14151,-13.04524 10.7176,-19.56402c4.89473,-8.96412 9.87017,-17.87572 14.79575,-26.81935c0.52342,-1.01708 1.17621,-1.95474 1.9097,-2.80529c0.98868,-1.08369 2.24322,-1.95986 3.65562,-2.19812z" id="svg_2"/>
    </g>
   </g>
  </g>
  <text transform="matrix(2.25994 0 0 2.10713 -337.476 -72.2298)" stroke="#000" xml:space="preserve" text-anchor="start" font-family="Noto Sans JP" font-size="24" id="svg_8" y="87.52345" x="242.22399" stroke-width="0" fill="#000000">Cloud</text>
  <text transform="matrix(2.00881 0 0 1.78328 -335.356 29.003)" stroke="#000" xml:space="preserve" text-anchor="start" font-family="Noto Sans JP" font-size="24" id="svg_9" y="12.23649" x="286.97061" stroke-width="0" fill="#000000">Kim</text>
 </g>

</svg>