<svg id="Layer_3" data-name="Layer 3" xmlns="http://www.w3.org/2000/svg" viewBox="0 12 440 116"><defs><style>.cls-1{fill:#e30613;}.cls-2{fill:#1d1d1b;}</style></defs><title>CoreELEC_logo_horizontal</title><path class="cls-1" d="M72,111.66A52.28,52.28,0,0,0,147.89,65,52.32,52.32,0,0,0,71.94,18.32a52.66,52.66,0,0,0-18,15.08,6.69,6.69,0,0,0,.6,8.74l.08.08a6.67,6.67,0,0,0,10-.69,39.58,39.58,0,0,1,3.51-4,38.88,38.88,0,1,1,0,55,40.75,40.75,0,0,1-3.46-4,6.66,6.66,0,0,0-10-.67l-.08.08A6.67,6.67,0,0,0,54,96.66,52.63,52.63,0,0,0,72,111.66Z"/><path class="cls-2" d="M122.1,76.12a28.65,28.65,0,1,1-52-24.07,28.94,28.94,0,0,1,8.22-9.87,4.56,4.56,0,0,1,6,.4l.05,0a4.53,4.53,0,0,1,1.32,3.52,4.59,4.59,0,0,1-1.78,3.32,19.27,19.27,0,0,0-2,1.73,19.5,19.5,0,0,0,6.2,31.74,19.49,19.49,0,0,0,21.36-31.74,19.89,19.89,0,0,0-2-1.76,4.55,4.55,0,0,1-.47-6.84l.05-.05a4.55,4.55,0,0,1,6-.4A28.77,28.77,0,0,1,121.26,52a28.71,28.71,0,0,1,.84,24.1Z"/><path class="cls-2" d="M95.7,76.76h0a4.62,4.62,0,0,1-4.61-4.61V41a4.62,4.62,0,0,1,4.61-4.61h0A4.62,4.62,0,0,1,100.31,41V72.15A4.62,4.62,0,0,1,95.7,76.76Z"/><path class="cls-2" d="M186.91,52.52c4.39,0,7.76,1.91,10.3,5.83a.54.54,0,0,0,.35.23.53.53,0,0,0,.4-.1l4.25-3.13a.52.52,0,0,0,.13-.69,17.07,17.07,0,0,0-6.44-6.09,19.45,19.45,0,0,0-22.49,3.14A17.88,17.88,0,0,0,167.88,65a17.93,17.93,0,0,0,5.5,13.29A19.59,19.59,0,0,0,196,81.38a16.72,16.72,0,0,0,6.39-6.09.53.53,0,0,0-.14-.68L198,71.47a.52.52,0,0,0-.4-.09.54.54,0,0,0-.35.23c-2.54,3.92-5.91,5.82-10.3,5.82a11.67,11.67,0,0,1-8.67-3.54A12.28,12.28,0,0,1,174.77,65a12.29,12.29,0,0,1,3.47-8.92A11.67,11.67,0,0,1,186.91,52.52Z"/><path class="cls-2" d="M219,55.31a14,14,0,0,0-10.15,4.09,14.26,14.26,0,0,0,0,20.09,14.57,14.57,0,0,0,20.32,0,14.09,14.09,0,0,0,0-20.13A14.19,14.19,0,0,0,219,55.31Zm-5.42,19.87a8.63,8.63,0,0,1,0-11.41,7.51,7.51,0,0,1,10.84,0,8,8,0,0,1,2.17,5.73,7.87,7.87,0,0,1-2.19,5.67A7.21,7.21,0,0,1,219,77.43,7.11,7.11,0,0,1,213.59,75.18Z"/><path class="cls-2" d="M253.34,55.92a8.44,8.44,0,0,0-2.27-.29,9.55,9.55,0,0,0-7.08,2.8v-2a.52.52,0,0,0-.52-.52h-5.21a.52.52,0,0,0-.52.52v26.1a.52.52,0,0,0,.52.52h5.58a.52.52,0,0,0,.52-.52V68.59a6.17,6.17,0,0,1,2-5,7.6,7.6,0,0,1,5.14-1.76h1.7a.52.52,0,0,0,.52-.52V56.42A.52.52,0,0,0,253.34,55.92Z"/><path class="cls-2" d="M268.62,55.31a13.52,13.52,0,0,0-10,4.12,13.87,13.87,0,0,0-4.06,10.07,13.58,13.58,0,0,0,4.15,10.07,14.31,14.31,0,0,0,10.41,4.06,15.28,15.28,0,0,0,10.77-4.34.53.53,0,0,0,.08-.68l-2.66-3.83a.51.51,0,0,0-.37-.21.49.49,0,0,0-.4.12,10.87,10.87,0,0,1-7.26,3,8.4,8.4,0,0,1-5.37-1.7,7.11,7.11,0,0,1-2.51-4.13h18.83a.52.52,0,0,0,.51-.4,16.35,16.35,0,0,0,.43-3.62,12.1,12.1,0,0,0-3.58-8.93A12.29,12.29,0,0,0,268.62,55.31Zm5.94,11.12h-13a7.51,7.51,0,0,1,2.36-3.74,6.71,6.71,0,0,1,4.47-1.61,6.22,6.22,0,0,1,4.39,1.6A5.39,5.39,0,0,1,274.56,66.43Z"/><path class="cls-2" d="M309.48,79.51H290.16V65.34h14.43a.52.52,0,0,0,.51-.52v-2.5a.51.51,0,0,0-.51-.52H290.16V50.45h18.68a.52.52,0,0,0,.52-.52v-2.5a.52.52,0,0,0-.52-.52h-22a.52.52,0,0,0-.52.52V82.52a.52.52,0,0,0,.52.52h22.6a.52.52,0,0,0,.52-.52V80A.52.52,0,0,0,309.48,79.51Z"/><path class="cls-2" d="M334.84,79.51H318.07V47.43a.52.52,0,0,0-.52-.52h-2.76a.52.52,0,0,0-.52.52V82.52a.52.52,0,0,0,.52.52h20a.51.51,0,0,0,.51-.52V80A.51.51,0,0,0,334.84,79.51Z"/><path class="cls-2" d="M362.36,79.51H343.05V65.34h14.42a.52.52,0,0,0,.52-.52v-2.5a.52.52,0,0,0-.52-.52H343.05V50.45h18.67a.52.52,0,0,0,.52-.52v-2.5a.52.52,0,0,0-.52-.52h-22a.51.51,0,0,0-.51.52V82.52a.51.51,0,0,0,.51.52h22.6a.52.52,0,0,0,.52-.52V80A.52.52,0,0,0,362.36,79.51Z"/><path class="cls-2" d="M396.4,75.53l-2.07-1.65a.52.52,0,0,0-.4-.11.53.53,0,0,0-.35.21,13.53,13.53,0,0,1-11.65,6,14,14,0,0,1-10.42-4.28,14.86,14.86,0,0,1-4.16-10.73,14.74,14.74,0,0,1,4.19-10.67A14,14,0,0,1,381.93,50a13.58,13.58,0,0,1,11.65,6,.51.51,0,0,0,.35.22.52.52,0,0,0,.4-.11l2.07-1.65a.52.52,0,0,0,.1-.71,17.24,17.24,0,0,0-6.25-5.37A18.43,18.43,0,0,0,363.39,65,18.54,18.54,0,0,0,390.25,81.6a17.14,17.14,0,0,0,6.25-5.37A.51.51,0,0,0,396.4,75.53Z"/></svg>
