<?xml version="1.0" encoding="utf-8"?>
<!-- Generator: Adobe Illustrator 22.1.0, SVG Export Plug-In . SVG Version: 6.00 Build 0)  -->
<svg version="1.1" id="图层_1" xmlns="http://www.w3.org/2000/svg" xmlns:xlink="http://www.w3.org/1999/xlink" x="0px" y="0px"
	 viewBox="0 0 97.5 97.5" style="enable-background:new 0 0 97.5 97.5;" xml:space="preserve">
<style type="text/css">
	.st0{fill:#E60012;}
	.st1{fill:#FFFFFF;}
</style>
<g>
	<path class="st0" d="M94.8,65.8c0.4-0.1,0.7-0.3,1-0.6v-1c-0.3-0.3-0.5-0.7-0.7-1C95,63.1,94.9,63,94.8,63v-4.7c-0.7,0-1-0.3-1-1
		h-1v-1.4l0,0c0.4-0.1,0.7-0.3,1-0.6v-1c0.3-0.1,0.8-0.2,0.8-0.3c0.1-0.6-0.3-0.7-0.8-0.7v-1c0.7,0,1-0.3,1-1h-0.6
		c0-0.1,0-0.1,0-0.2c-0.2-0.8-0.6-1.1-1.4-0.9v-0.9h1c0-0.7-0.3-1-1-1v-1c0.7,0,1-0.3,1-1h1v-3c-0.1-0.6,0.3-1.3-0.4-1.9
		c-0.8-0.2-1.6-0.4-1.6,0.9h-1v-2h3v-2c-0.3-0.3-0.6-0.5-1-0.6v-1.4h-1v-1c0.7,0,1-0.3,1-1h-1v-1c0.7,0,1-0.3,1-1v-2
		c0.7,0,1-0.3,1-1v-8c0-0.7-0.3-1-1-1v-1h1v-2h-1v-2c0.3-0.1,0.8-0.2,0.8-0.3c0.1-0.6-0.3-0.7-0.8-0.7v-1c0.3-0.1,0.8-0.2,0.8-0.3
		l-0.8-0.7v-2h-0.7c0-0.1,0-0.1,0-0.2C93,10,92.9,9.9,92.8,9.8V8.3h1v-3h-2v-1h-3v-1h-1c-0.8,0.2-1.9-0.5-2,1h-2
		c-0.8,0.2-1.9-0.5-2,1h-2c0-0.7-0.3-1-1-1c0-0.7-0.3-1-1-1c-0.8,0.2-1.9-0.5-2,1c-0.7,0.3-1.3,0.7-2,1v-2c-0.8,0.2-1.9-0.5-2,1
		c-0.7,0-1,0.3-1,1h-1c-0.5-1.4-1.7-2.1-2.7-3c-0.8,0-1.4,0.1-1.3,1c-0.7,0-1,0.3-1,1h-1c0-0.7-0.3-1-1-1h-1c-0.7,0-1,0.3-1,1h-2
		c0-0.7-0.3-1-1-1c-1.5,0.1-0.8,1.2-1,2h-1c0-0.7-0.3-1-1-1c0-0.7-0.3-1-1-1h-2c-1.5,0.1-0.8,1.2-1,2h-4v-1c0.3-0.1,0.8-0.2,0.8-0.3
		c0.1-0.6-0.3-0.7-0.8-0.7c-0.1-0.3-0.2-0.8-0.3-0.8c-0.6-0.1-0.7,0.3-0.7,0.8h-3c-0.1-0.3-0.2-0.8-0.3-0.8
		c-0.6-0.1-0.7,0.3-0.7,0.8h-1c-0.7,0-1,0.3-1,1h-3c0.1-1-0.6-1-1.3-1c-0.6,0-1,1.3-1.4,0.7c-1.4-1.8-2.2,0.3-3.3,0.3
		c-0.1-0.3-0.2-0.8-0.3-0.8c-0.6-0.1-0.7,0.3-0.7,0.8c-0.7,0-1,0.3-1,1h-2v-1c0.7,0,1-0.3,1-1c-0.1-0.3-0.2-0.8-0.3-0.8
		c-0.6-0.1-0.7,0.3-0.7,0.8c-0.7,0-1,0.3-1,1h-2c-0.7,0-1,0.3-1,1h-1c0-0.7-0.3-1-1-1c0-0.7-0.3-1-1-1c-1.5,0.1-0.8,1.2-1,2h-1
		c-1.1-0.1-1.7-1.5-3-1h-2c-0.8,0-1.6,0.2-2.2-0.7c-0.5-0.7-1.2-0.2-1.8-0.3c-0.7,0-1,0.3-1,1h-1c-0.3-0.5-0.7-0.5-1,0v1
		c-1.5,0.1-0.8,1.2-1,2c-0.7,0-1,0.3-1,1c-1.9,0.5-0.6,2-1,3v2h0.7v0.1c0.1,0,0.2,0.1,0.3,0.1v0.8h1v2C4.5,16.4,4,16.4,4,16.6
		c-0.1,0.6,0.3,0.7,0.8,0.7v1c-0.7,0-1,0.3-1,1h-1v2c0,0.7,0.3,1,1,1v3c-0.5,0-0.9,0-0.8,1h1.8v2h-1c-0.6-0.1-0.9,0.3-1,0.8
		c-0.1,0.7,0,1.3,1,1.2v2c-0.6-0.1-0.9,0.3-1,0.8c-0.1,0.7,0,1.3,1,1.2v2c0.4,1-0.9,2.5,1,3v2c-0.7,0-1,0.3-1,1v3c0,0.7,0.3,1,1,1v2
		h-3c0.5,1.2,1,1.8,2,2h1v1c-0.7,0-1,0.3-1,1C3.5,52.4,3,52.4,3,52.6c-0.1,0.6,0.3,0.7,0.8,0.7v2c-0.7,0-1,0.3-1,1v1
		c0.2,0.8-0.5,1.9,1,2v1c-1.4,1.3-1.4,2.7,0,4c0,0.7,0.3,1,1,1h1v1c-1.9,0.5-0.6,2-1,3v1c-0.6-0.1-0.9,0.3-1,0.8
		c-0.1,0.7,0,1.3,1,1.2c0.7,0,1,0.3,1,1c-1.9,0.5-0.6,2-1,3h-1c-0.4,0.7-0.7,1.3-1,1.8c-0.2,1.2,1.3,1.3,1,2.3
		c-0.1,1.4-2.2,1.6-2,3.1c0.2,0.5,0.4,0.9,1,0.8v2c-0.5-0.1-0.8,0.1-0.9,0.6c0.3,0.5,1,0.7,0.9,1.4h1v1c0,0.7,0.3,1,1,1v2
		c0,0.7,0.3,1,1,1c0.7,0.3,1.3,0.7,2,1v1h1v-1c0.7,0,1-0.3,1-1h1v2h2v-1h1v-0.5c0.3,0,0.7,0,1-0.1c0.1-0.1,0.3-0.2,0.4-0.4h2.7
		c0.8,0.2,1.9-0.5,2,1c0.1,0.3,0.2,0.8,0.3,0.8c0.6,0.1,0.7-0.3,0.7-0.8h1c0,0.7,0.3,1,1,1c0.3-0.3,0.3-0.7,0-1h1v1h7
		c0.7,0,1-0.3,1-1h3c0.1,0.3,0.2,0.8,0.3,0.8c0.6,0.1,0.7-0.3,0.7-0.8h4c0.1,1.5,1.2,0.8,2,1h2c0.8-0.2,1.9,0.5,2-1h1
		c0,0.7,0.3,1,1,1h2c0.7,0,1-0.3,1-1h2v1c0.7,0,1-0.3,1-1c0.7,0,1-0.3,1-1h1v1c0,0.7,0.3,1,1,1h5v-1h5c0,0.7,0.3,1,1,1h4
		c0.7,0,1-0.3,1-1h4c0.1,0.3,0.2,0.8,0.3,0.8c0.6,0.1,0.7-0.3,0.7-0.8h1c0.7,0.3,1.3,0.7,2,1c0.7,0,1-0.3,1-1v-1h2c0,0.7,0.3,1,1,1
		h1c0,0.7,0.3,1,1,1v-1h1c0.1-1.5,1.2-0.8,2-1c0.7,0,1-0.3,1-1h1c0.7,0,1-0.3,1-1v-1c1.5-0.1,0.8-1.2,1-2c0.3-0.1,0.8-0.2,0.8-0.3
		c0.1-0.6-0.3-0.7-0.8-0.7v-1h1v-3h-1v-4h1c0.3,0.5,0.7,0.5,1,0v-4h-3v-3c1.5-0.1,0.8-1.2,1-2v-2c1.5-0.1,0.8-1.2,1-2L94.8,65.8
		L94.8,65.8z"/>
	<path class="st1" d="M26.9,17.4h0.3c-0.6,9.2-1.5,18.1-2.9,27l3.6,0.3c0.5-6.5,1-12.5,1.5-18l1.5,2.4c3.2-1.7,5.9-2.6,8.1-2.7
		c1.3,0.1,1.9,0.7,2.1,1.7c0,2.1-1.1,4.2-3.3,6.5c-0.5-0.3-1.2-0.9-2.2-1.7c-1-0.7-1.8-1.2-2.4-1.5l-2.1,2.4
		c0.5,0.3,1.2,0.8,2.2,1.4c0.9,0.7,1.6,1.2,2.1,1.5c-1.7,1.4-3.8,2.7-6.4,3.9l2.1,2.4c3-1.3,5.4-2.7,7.2-4.3
		c0.8,0.5,1.9,1.3,3.4,2.4c0.8,0.6,1.4,1,1.9,1.2l2.4-2.1c-0.6-0.5-1.5-1.1-2.7-1.9c-1.1-0.8-2.1-1.4-2.7-1.7
		c2.6-2.9,3.9-5.6,3.9-8.2c0-3.4-1.8-5.1-5.5-5.1h-1.5c0-0.9-0.1-2.2-0.2-3.9c0-1.8-0.1-3.1-0.2-3.9h2.7c1.1,0,1.7,0.2,1.5,0.5
		c0.1,0.5-0.6,1.5-2.1,3.3l3.1,1.5c1.7-2.5,2.5-4.5,2.4-5.8c0.1-1.9-1.6-2.9-5.1-2.7H37c0-1.7,0.1-3.4,0.3-5h-3.8v2.1
		c0.1,1.5,0.2,2.6,0.2,3.4c-3.2,0.5-5.7,1-7.6,1.5c-0.6,0.2-0.2,1.2-0.2,1.2L26.9,17.4z M31,16.4c1-0.3,2.1-0.5,3.1-0.5v8.4
		c-1.1,0.3-2.6,0.9-4.5,1.7C29.9,22.5,30.4,19.3,31,16.4z M38.7,53.2c-3.3,0-6.3,0.4-9.1,1.2l1.2,3.4c0.8-0.3,1.9-0.6,3.4-0.9
		c-1.4,3.8-2.9,7.2-4.5,10.1l3.1,1.2c1.6-4,3.3-7.9,5.1-11.7h0.7c2.9-0.2,4.1,0.6,3.8,2.6c0.5,4.2-1.5,5.9-5.8,5.1l0.3,3.3
		c6.5,0.5,9.5-2.2,9.1-7.9C46.6,55.1,44.1,52.9,38.7,53.2z M80.7,60.3h-1.2c-0.6,0.1-1,0.2-1.4,0.2c1.1-1.3,2.4-2.5,3.8-3.6
		l-2.2-1.8c1.1,0,2.2-0.1,3.2-0.3l-0.7-3c-0.6,0.1-1.5,0.2-2.7,0.3c-10,1.4-17.6,2.4-22.7,3l0.7,3.3c0.5-0.1,1.1-0.2,1.9-0.3
		c0.8-0.2,1.4-0.3,1.7-0.3c0.8,1.6,1.4,3.3,1.7,5.1c-1.5,0.3-2.8,0.7-4.1,1.1L58,62.1l-3.2,1.1c1,1.9,2,4,2.9,6.4l3.2-1
		c-0.3-0.7-0.7-1.4-1-2.1c1.9-0.5,4.2-1,6.7-1.5c-0.9,1.5-1.7,3.1-2.4,4.8c-3.1,0.1-6,0.3-8.9,0.7l0.5,3.1c0.8-0.1,1.9-0.2,3.4-0.3
		c1.5-0.2,2.6-0.3,3.2-0.3c-2.4,4.6-4.8,9-7.3,13.3l3.2,1.3c1.1-1.9,2.2-3.9,3.2-6c0.3,0.1,0.2,0.1,0.6,0.2c0.6,0.2,0.5,0.1,0.9,0.2
		c0.1,0,0.4,0.1,0.5,0.2c1.8,0.7,3.5,0.9,3.5,0.9v0.4c-0.6,0.3-1.2,0.8-1.9,1.3c-0.1,0.1-0.2,0.2-0.3,0.3l0,0l-2.2,2.1l2,2
		c0,0,2.1-1.3,3.5-2.5l0,0c0.3-0.1,0.5-0.3,0.7-0.4c1.2-0.8,2.4-1.3,3.8-1.5c1.2-0.1,2.5,0.1,4,0.4c0.9,0.2,1.7,0.4,2.5,0.6l0,0
		c0.8,0.2,5.2,1.8,5.2,1.8l2-3L82.4,83l0,0l-4.6-1.6V81c0.9-0.4,1.8-1,2.6-2c0.8-0.9,1.6-1.3,1.7-2.5c-0.1-1.9-0.9-3-2.6-3.4
		s-3.1-0.5-4.4-0.3c-3,0.4-6.5,1-9.6,1.4c0-0.1,0.1-0.2,0.1-0.3c0.5-0.7,0.7-1.1,0.9-1.5c6.7-0.7,13.3-1.3,19.8-2L86,67.1l-0.5,0.2
		c1.1-1.6,1.7-3,1.7-3.9C87,61.3,84.9,60.3,80.7,60.3z M71.6,76.7l4.1-0.4c0.2,0,0.6,0,1.1,0.2c0.5,0.1,0.7,0.4,0.8,0.6
		C77.4,77.9,76.4,78,75,79c-1.3,1-2.3,1.5-3,1.7c-0.6,0-1.1,0-1.6-0.2c-2.9-0.7-3.6-0.7-5.7-1l-2-0.3l-0.1,0.1
		c0.1-0.2,0.2-0.5,0.3-0.7c0.2-0.1,0.4-0.3,0.6-0.5C66.5,77.6,68.8,77.1,71.6,76.7z M79.3,55.2c-0.3,0.3-0.7,0.8-1.2,1.3
		c-1.7,1.5-3,2.7-3.9,3.4l0.9,0.8c-1,0-2,0.1-3.1,0.3c-0.2-0.8-0.5-1.9-0.7-3.3c-0.1-0.8-0.2-1.3-0.3-1.6
		C73.8,55.7,76.6,55.3,79.3,55.2z M65.8,62.3c-0.7-1.7-1.1-3.1-1.4-4.1c-0.1-0.4-0.2-0.8-0.3-1c0.3,0,0.9-0.1,1.7-0.3
		c0.9-0.1,1.6-0.2,2-0.3c0.6,1.6,0.9,3.3,1,5.1C67.9,61.7,66.8,61.9,65.8,62.3z M68,69.5c0.8-1.6,1.7-3.2,2.7-4.6l-1.2-0.5
		c5.7-0.9,9.3-1.3,10.9-1.3c1.7,0,2.6,0.4,2.6,1.1c-0.1,0.8-0.7,1.5-1.7,2.3l2.6,1C78.7,68.3,73.4,68.9,68,69.5z M89.5,24.8
		c-2.5,0.1-5.1,0.3-7.9,0.5c0.5-1.4,0.7-2.9,0.7-4.3c0.1-3.1-1.8-4.6-5.7-4.5c-2.5,0-5.2,0.2-8.2,0.7c0.1-0.5,0.2-1.2,0.4-2.3
		c0.2-0.8,0.4-1.4,0.4-1.8c3.3-0.1,4.5-0.2,3.4-0.2c5.8-0.1,10.4-0.2,13.6-0.4l0.2-3.4c-11.7,0.7-21.8,1.1-30.3,1.2v3.6
		c3.3-0.4,6.5-0.5,9.5-0.5c-0.1,1.2-0.3,2.6-0.5,4.3c-0.5,0.1-1.1,0.2-2,0.4c-2.3,0.5-3.8,0.8-4.6,1.1l0.9,3.4
		c0.1,0,0.2-0.1,0.4-0.2c1.9-0.5,3.5-0.8,4.8-1.1c-0.1,0.5-0.2,1.2-0.4,2.1c-0.2,1.1-0.4,1.8-0.5,2.3c-3.6,0.1-7.1,0.2-10.5,0.2
		l0.2,3.6C65.8,28.7,78,28.3,90,28.3L89.5,24.8z M78.6,21.4c0,1.3-0.4,2.7-1.1,4.1c-1.2,0.1-2.9,0.2-5.2,0.2c-2.3,0.1-4,0.2-5.2,0.2
		c0-0.5,0.1-1.3,0.4-2.3c0.1-1.2,0.2-2.1,0.4-2.7c3.5-0.6,6.4-1,8.7-1.1C78,19.7,78.7,20.2,78.6,21.4z M39.6,74.9h6.2V72
		c-2.1,0.1-4.1,0.2-6.2,0.2c0-0.8,0.1-1.7,0.2-2.7l-3.4,0.2c0,0.2,0.1,0.6,0.2,1.2v1.4h-2.9c0.1-0.3,0.3-0.8,0.7-1.4
		c0.2-0.6,0.4-1,0.5-1.2L32,68.3c-0.5,1.4-1.3,3.3-2.4,5.7c-0.3,0.6-0.6,1-0.7,1.4v0.7l2.6,1c0.1-0.2,0.2-0.6,0.3-1
		c0.2-0.5,0.3-0.8,0.3-1c1.5,0,2.9-0.1,4.3-0.2c0.1,1.6,0.2,3.3,0.2,5c-2.6,0.1-5.1,0.3-7.5,0.5l0.2,2.9c0.8,0,1.9-0.1,3.4-0.3
		c1.7-0.1,3-0.2,3.9-0.3c-0.1,0.6-0.2,1.5-0.2,2.7c-0.1,1-0.2,1.8-0.2,2.4h3.6c0-0.7-0.1-1.5-0.2-2.6c0-1.3-0.1-2.2-0.2-2.9
		c1.1-0.1,2.7-0.2,4.6-0.3c1-0.1,1.8-0.2,2.2-0.2v-3.3c-2.3,0.5-4.6,0.8-6.9,1v-4.6H39.6z M11.3,29.8l0.4-0.5
		c-0.2,2.5-0.1,4.7,0.2,6.6c0.4,1.9,2.4,2.8,6.1,2.9c2.9,0,4.8-0.5,5.6-1.6c0.8-1.1,1.2-2.6,1.1-4.7c0.2-3.4,0-5.6-0.7-6.8
		c-0.7-1.1-3-1.7-7-1.7l0,0c0,0,6.7-5.8,6.7-7.1c-0.1-1.2-0.6-1.9-1.6-2.2s-2.2-0.4-3.5-0.4h-8.4c-0.9,0-1.4,0.3-1.5,1v1.5
		c0,0.4,0.3,0.7,0.7,0.7h4.3l0,0c1.4,0.1,2.7-0.1,4.1,0c-1.6,2.2-4.1,4-5.9,6.2c-0.3,0.5,0,0-0.9,1.5c-0.5,0.9-0.9,1.6-1.1,2.1l0,0
		L9,28.8c-0.1,0.3,0,0.6,0.3,0.8l1,0.5C10.7,30.1,11.1,30,11.3,29.8z M15.7,27.9c0.1-0.2,0.2-0.5,0.4-0.8c0.7-0.2,1.5-0.3,2.2-0.3
		c1.3-0.1,2.1,0.3,2.5,1.1v6.6c-0.2,1.3-1.3,1.9-3.1,1.7c-1.3,0-1.9-0.5-2-1.4C15.7,34.8,15.7,27.9,15.7,27.9z M76.1,31.2
		c-4-0.1-7.9,0.4-11.7,1.5c-0.4,0.1-0.7,0.2-1.1,0.3l-1.8,0.7c-0.6-0.5-1.4-0.9-2.2-1.1c-0.6-0.1-1,0.1-1.3,0.6s-0.5,1.1-0.5,1.5V41
		c0.2,1.6,1.5,2.7,3.7,3.4s4.1,1,5.4,1c4.4,0.1,8.8-0.1,13.1-0.7c3.9-0.7,5.8-3.1,5.8-7c-0.1-2.8-1.1-4.6-3-5.4
		C80.7,31.5,78.5,31.1,76.1,31.2z M79.9,41.1c-1.1,0.4-2.2,0.7-3.5,0.7c-2.8,0.2-5.6,0.3-8.4,0.3c-1.5,0.1-2.9-0.1-4.3-0.5
		c-1.4-0.4-2.1-1.5-2.2-3.3c0-0.7,0.2-1.4,0.4-2c0.8-0.3,2.4-0.7,5-1.1c2.6-0.4,4.3-0.7,5.2-0.7h2.1c1.5-0.1,3,0.1,4.7,0.6
		c1.7,0.4,2.5,1.5,2.7,3.2C81.5,39.7,81,40.6,79.9,41.1z M28.6,58.4c-0.1-1.7-1.6-2.6-4.5-2.7c-1.6,0-3.4,0.2-5.3,0.7
		c0.5-0.5,1.1-1,1.9-1.7c0.9-0.8,1.5-1.4,1.9-1.7l-2.7-2.2c-3,3.4-6.3,6.8-10,10l2.6,2.1c1.1-1.4,2.4-2.6,3.8-3.8l0.3,1.2
		c2.2-0.9,4.7-1.5,7.5-1.7c0.4,0,1,0.2,0.7,1.3c-0.7,2.2-3.1,3.4-3.1,3.4l-0.3,0.4c-0.9,0.1-1.9,0.2-3.1,0.3c-1.1,0.1-2.1,0.5-2.8,1
		l-0.3,0.7c-0.3-0.1-0.6-0.3-0.7-0.7c-0.2-0.4-0.6-0.7-1.3-0.7c-0.8-0.2-1.2,0.2-1.4,1c-0.2,1-0.4,2.1-0.4,3.2L11.2,88
		c0,0.2,0.3,0.3,0.8,0.4c0.5,0,0.8,0,1.1,0s0.6-0.1,0.9-0.4c0.1-0.7,0.2-1.4,0.4-2.1l0.1-4.2c0.1-0.5,0.2-1,0.3-1.4h2.9l-0.1,6.4
		h2.9c0.3-2.1,0.4-4.2,0.4-6.4l3.1-0.7c0.1-0.1,0.2-0.3,0.3-0.4c0.1-0.8,0.2-1.5,0.2-2.3h-3.2C21,76.7,20.9,76.4,21,76
		c0.1-1.7,0.7-2.4,1.6-2c0.9,0.3,1.4-0.4,1.6-2.3c-0.1-0.6-0.4-0.9-1.1-0.8c-0.7,0-1.2,0.1-1.7,0.1c-0.3-0.3-0.4-0.7-0.3-1.3
		c0.1-0.9,0.3-1.9,0.4-2.8c0.3-0.1,0.6-0.1,0.9-0.2c1,0.1,1.7,0.7,2.1,1.7s0.6,2.1,0.6,3.1L24.9,80c-0.2,2.1-0.5,4.1-0.7,6.2
		c-0.1,1,0.2,1.4,1.1,1.2c1.2-0.1,2-0.7,2.4-1.8c0.4-1.1,0.6-2.3,0.6-3.5l0.2-12c-0.2-2.8-1.4-5-3.6-6.5l-0.1-0.2
		C25.3,62.5,28.3,61.5,28.6,58.4z M17.9,70.8c-0.1,0.4-0.5,0.5-1.2,0.6c-0.7,0-1.1,0.6-1.2,1.7c0,0.4,0.1,0.7,0.3,1h1.8v3
		c-1.1-0.2-2,0.2-2.8,1L15,66.9l3.1,0.4L17.9,70.8z"/>
</g>
</svg>
