<?xml version="1.0" encoding="utf-8"?>
<!-- Generator: Adobe Illustrator 23.0.0, SVG Export Plug-In . SVG Version: 6.00 Build 0)  -->
<svg version="1.1" id="图层_1" xmlns="http://www.w3.org/2000/svg" xmlns:xlink="http://www.w3.org/1999/xlink" x="0px" y="0px"
	 viewBox="0 0 42 42" style="enable-background:new 0 0 42 42;" xml:space="preserve">
<style type="text/css">
	.st0{fill:#5A79FA;}
	.st1{fill:#FFFFFF;}
	.st2{fill:#2F6FF7;}
	.st3{fill:url(#SVGID_1_);}
	.st4{fill:url(#SVGID_2_);}
	.st5{fill:url(#SVGID_3_);}
	.st6{fill:url(#SVGID_4_);}
	.st7{fill:url(#SVGID_5_);}
	.st8{fill:url(#SVGID_6_);}
	.st9{fill:url(#SVGID_7_);}
	.st10{fill:url(#SVGID_8_);}
	.st11{fill:url(#SVGID_9_);}
	.st12{fill:url(#SVGID_10_);}
	.st13{fill:url(#SVGID_11_);}
	.st14{fill:url(#SVGID_12_);}
	.st15{fill:url(#SVGID_13_);}
	.st16{fill:url(#SVGID_14_);}
	.st17{fill:url(#SVGID_15_);}
	.st18{fill:url(#SVGID_16_);}
	.st19{fill:url(#SVGID_17_);}
	.st20{fill:url(#SVGID_18_);}
	.st21{fill:#D22222;}
	.st22{fill:url(#SVGID_19_);}
	.st23{fill:#2598F5;}
	.st24{fill:none;}
</style>
<polygon class="st2" points="3.6,11.7 3.6,11.7 3.6,11.7 "/>
<linearGradient id="SVGID_1_" gradientUnits="userSpaceOnUse" x1="4.074" y1="10.8409" x2="3.0951" y2="12.5365">
	<stop  offset="0" style="stop-color:#DEECF9"/>
	<stop  offset="1" style="stop-color:#D5E6F8"/>
</linearGradient>
<polygon class="st3" points="3.6,11.7 3.6,11.7 3.6,11.7 "/>
<path class="st1" d="M3.6,11.7L3.6,11.7C3.6,11.7,3.6,11.7,3.6,11.7C3.6,11.7,3.6,11.7,3.6,11.7z"/>
<path class="st21" d="M33.3,42H8.7C3.9,42,0,38.1,0,33.3V8.7C0,3.9,3.9,0,8.7,0h24.6C38.1,0,42,3.9,42,8.7v24.6
	C42,38.1,38.1,42,33.3,42z"/>
<path class="st1" d="M33.1,12H8.9c-0.6,0-1.1,0.5-1.1,1.1v15.7c0,0.6,0.5,1.1,1.1,1.1h13.9l4.9,3.6l0-3.6h5.4c0.6,0,1.1-0.5,1.1-1.1
	V13.2C34.2,12.5,33.7,12,33.1,12z M17.4,27.8h-4.2V14.3h4.2V27.8z M30,18.2h-3.1v9.7h-4.1v-9.7h-3.1v-3.9H30V18.2z"/>
</svg>
